# xmcd
#
# Track frame offsets: 
#        150
#        21140
#        33147
#        45117
#        60039
#        72011
#        82876
#        100388
#        116622
#        130873
#        144703
#        166840
#        186096
#        199648
#        217163
#        231601
#        244655
#        261080
#        275870
#        292565
#
# Disc length: 4112 seconds
#
# Revision: 0
# Processed by: cddbd v1.5.2PL0 Copyright (c) Steve Scherf et al.
# Submitted via: ExactAudioCopy v1.0b1
#
DISCID=13100e14
DTITLE=Various Artist - Nasza mlodosc-03
DYEAR=2010
DGENRE=Disco polo
TTITLE0=01-Ta ostatnia niedziela_-_Mirolaw Politowski
TTITLE1=02-Jak zostane wielkim Panem_-_Cyganie Tip Top
TTITLE2=03-Zabrales serce moje_-_Tip Top
TTITLE3=04-Hej sokoly_-_Tip top
TTITLE4=05-Czerwone i bure_-_Biesiadna kapela
TTITLE5=06-Polka dziadek_-_Pawel Sobota
TTITLE6=07-Cyganeria_-_Sekret
TTITLE7=08-Gesi za woda_-_Stasiek Wielanek
TTITLE8=09-Snil mi sie rodzinny dom_-_Mirolaw Politowski
TTITLE9=10-Moj chlopiec zna caly swiat_-_Tip Top
TTITLE10=11-W goracym sloncu Casablanki_-_Cassanova
TTITLE11=12-Tango milonga_-_Tip Top
TTITLE12=13-Szczescie_-_Biesiadna kapela
TTITLE13=14-Maly bialy domek_-_Tip Top
TTITLE14=15-Mala blekitna chusteczka_-_Joanna Kordylak
TTITLE15=16-Chryzantemy zlociste_-_Biesiadna kapela
TTITLE16=17-Tylko we Lwowie_-_Mirolaw Politowski
TTITLE17=18-Czerowna roza, bialy kwiat_-_chor Animato
TTITLE18=19-Dzis bedzie zabawa_-_Sekret
TTITLE19=20-Juz nie zakocham sie (Bonus)
EXTD=
EXTT0=
EXTT1=
EXTT2=
EXTT3=
EXTT4=
EXTT5=
EXTT6=
EXTT7=
EXTT8=
EXTT9=
EXTT10=
EXTT11=
EXTT12=
EXTT13=
EXTT14=
EXTT15=
EXTT16=
EXTT17=
EXTT18=
EXTT19=
PLAYORDER=
